# xmcd CD database file
#
# Track frame offsets:
#	150
#	18439
#	35146
#	56079
#
# Disc length: 986 seconds
#
# Revision: 0
# Processed by: cddbd v1.4b42PL1 Copyright (c) Steve Scherf et al.
# Submitted via: Feurio! 1.62 - http://www.feurio.com
#
DISCID=3103d804
DTITLE=Lausters Revier - Gelsenkirchen
DYEAR=1996
DGENRE=Schlager
TTITLE0=Gelsenkirchen - Der Weg, der sich lohnt
TTITLE1=Blues im Bauch
TTITLE2=Ich vermisse Dich
TTITLE3=Gelsenkirchen (Karaoke)
EXTD=126
EXTT0=
EXTT1=
EXTT2=
EXTT3=
PLAYORDER=
